<?xml version="1.0" standalone="no"?>
<!DOCTYPE svg PUBLIC "-//W3C//DTD SVG 20010904//EN"
 "http://www.w3.org/TR/2001/REC-SVG-20010904/DTD/svg10.dtd">
<svg version="1.0" xmlns="http://www.w3.org/2000/svg"
 width="500.000000pt" height="500.000000pt" viewBox="0 0 500.000000 500.000000"
 preserveAspectRatio="xMidYMid meet">
<metadata>
Created by potrace 1.14, written by Peter Selinger 2001-2017
</metadata>
<g transform="translate(0.000000,500.000000) scale(0.100000,-0.100000)"
fill="#000000" stroke="none">
<path d="M0 2500 l0 -2500 2500 0 2500 0 0 2500 0 2500 -2500 0 -2500 0 0
-2500z m3082 1752 c326 -74 549 -217 705 -450 124 -185 183 -398 183 -657 0
-256 -59 -472 -182 -662 -126 -195 -337 -350 -566 -416 -45 -13 -84 -26 -88
-30 -3 -3 220 -297 497 -653 277 -356 506 -651 507 -656 2 -4 -209 -8 -470 -8
l-473 1 -446 637 -445 637 -197 3 -197 2 0 -640 0 -640 -390 0 -390 0 0 1780
0 1781 928 -4 c913 -3 928 -3 1024 -25z"/>
<path d="M1910 3139 l0 -541 418 5 c463 5 496 9 629 72 181 85 261 247 250
505 -6 139 -30 223 -87 302 -72 101 -202 165 -381 188 -46 5 -251 10 -456 10
l-373 0 0 -541z"/>
</g>
</svg>
